STARTFONT 2.3
FONT -FontForge-Courgette-Book-R-Normal--11-110-72-72-P-57-ISO10646-1
SIZE 11 72 72  2
FONTBOUNDINGBOX 15 15 -2 -3
COMMENT "Generated by fontforge, http://fontforge.sourceforge.net"
COMMENT "Copyright (c) 2012, Sorkin Type Co (www.sorkintype.com) with Reserved Font Name "Courgette"."
STARTPROPERTIES 41
FOUNDRY "FontForge"
FAMILY_NAME "Courgette"
WEIGHT_NAME "Book"
SLANT "R"
SETWIDTH_NAME "Normal"
ADD_STYLE_NAME ""
PIXEL_SIZE 11
POINT_SIZE 110
RESOLUTION_X 72
RESOLUTION_Y 72
SPACING "P"
AVERAGE_WIDTH 57
CHARSET_REGISTRY "ISO10646"
CHARSET_ENCODING "1"
FONTNAME_REGISTRY ""
CHARSET_COLLECTIONS "ISO8859-2 ISO8859-9 ISO8859-4 ISO10646-1"
BITS_PER_PIXEL 2
FONT_NAME "Courgette-Regular"
FACE_NAME "Courgette Regular"
COPYRIGHT "Copyright (c) 2012, Sorkin Type Co (www.sorkintype.com) with Reserved Font Name "Courgette"."
FONT_VERSION "1.002"
FONT_ASCENT 9
FONT_DESCENT 2
UNDERLINE_POSITION -1
UNDERLINE_THICKNESS 1
X_HEIGHT 5
CAP_HEIGHT 8
DEFAULT_CHAR 1
RAW_ASCENT 799
RAW_DESCENT 200
NORM_SPACE 3
RELATIVE_WEIGHT 40
RELATIVE_SETWIDTH 50
SUPERSCRIPT_X 0
SUPERSCRIPT_Y 5
SUPERSCRIPT_SIZE 7
SUBSCRIPT_X 0
SUBSCRIPT_Y 1
SUBSCRIPT_SIZE 7
AVG_LOWERCASE_WIDTH 54
AVG_UPPERCASE_WIDTH 65
ENDPROPERTIES
CHARS 407
STARTCHAR .null.dup1
ENCODING 0
SWIDTH 0 0
DWIDTH 0 0
BBX 1 1 0 0
BITMAP
00
ENDCHAR
STARTCHAR uni0001
ENCODING 1
SWIDTH 0 0
DWIDTH 0 0
BBX 1 1 0 0
BITMAP
00
ENDCHAR
STARTCHAR uni0002
ENCODING 2
SWIDTH 0 0
DWIDTH 0 0
BBX 1 1 0 0
BITMAP
00
ENDCHAR
STARTCHAR uni0003
ENCODING 3
SWIDTH 0 0
DWIDTH 0 0
BBX 1 1 0 0
BITMAP
00
ENDCHAR
STARTCHAR uni0004
ENCODING 4
SWIDTH 0 0
DWIDTH 0 0
BBX 1 1 0 0
BITMAP
00
ENDCHAR
STARTCHAR uni0005
ENCODING 5
SWIDTH 0 0
DWIDTH 0 0
BBX 1 1 0 0
BITMAP
00
ENDCHAR
STARTCHAR uni0006
ENCODING 6
SWIDTH 0 0
DWIDTH 0 0
BBX 1 1 0 0
BITMAP
00
ENDCHAR
STARTCHAR uni0007
ENCODING 7
SWIDTH 0 0
DWIDTH 0 0
BBX 1 1 0 0
BITMAP
00
ENDCHAR
STARTCHAR uni0008
ENCODING 8
SWIDTH 0 0
DWIDTH 0 0
BBX 1 1 0 0
BITMAP
00
ENDCHAR
STARTCHAR uni0009
ENCODING 9
SWIDTH 0 0
DWIDTH 0 0
BBX 1 1 0 0
BITMAP
00
ENDCHAR
STARTCHAR nonmarkingreturn
ENCODING 13
SWIDTH 0 0
DWIDTH 0 0
BBX 1 1 0 0
BITMAP
00
ENDCHAR
STARTCHAR uni0015
ENCODING 21
SWIDTH 0 0
DWIDTH 0 0
BBX 1 1 0 0
BITMAP
00
ENDCHAR
STARTCHAR uni0016
ENCODING 22
SWIDTH 0 0
DWIDTH 0 0
BBX 1 1 0 0
BITMAP
00
ENDCHAR
STARTCHAR uni0017
ENCODING 23
SWIDTH 0 0
DWIDTH 0 0
BBX 1 1 0 0
BITMAP
00
ENDCHAR
STARTCHAR uni0018
ENCODING 24
SWIDTH 0 0
DWIDTH 0 0
BBX 1 1 0 0
BITMAP
00
ENDCHAR
STARTCHAR uni0019
ENCODING 25
SWIDTH 0 0
DWIDTH 0 0
BBX 1 1 0 0
BITMAP
00
ENDCHAR
STARTCHAR space
ENCODING 32
SWIDTH 307 0
DWIDTH 3 0
BBX 1 1 0 0
BITMAP
00
ENDCHAR
STARTCHAR exclam
ENCODING 33
SWIDTH 417 0
DWIDTH 5 0
BBX 4 9 1 0
BITMAP
07
0D
1C
24
30
60
50
50
D0
ENDCHAR
STARTCHAR quotedbl
ENCODING 34
SWIDTH 437 0
DWIDTH 5 0
BBX 5 3 1 7
BITMAP
3640
6300
5500
ENDCHAR
STARTCHAR numbersign
ENCODING 35
SWIDTH 725 0
DWIDTH 8 0
BBX 8 9 0 0
BITMAP
0089
018C
0258
1BB9
0230
0620
6EF8
0880
1480
ENDCHAR
STARTCHAR dollar
ENCODING 36
SWIDTH 545 0
DWIDTH 6 0
BBX 7 13 0 -2
BITMAP
0010
0030
02A0
0924
1C34
1CB0
1D00
0B00
1340
6240
3A00
2000
1000
ENDCHAR
STARTCHAR percent
ENCODING 37
SWIDTH 876 0
DWIDTH 10 0
BBX 8 9 1 0
BITMAP
2909
DA18
C970
88D0
0259
0666
1896
30D9
9068
ENDCHAR
STARTCHAR ampersand
ENCODING 38
SWIDTH 563 0
DWIDTH 6 0
BBX 7 9 0 0
BITMAP
06A0
1D24
2870
2490
1A00
2900
62E0
A180
6A00
ENDCHAR
STARTCHAR quotesingle
ENCODING 39
SWIDTH 231 0
DWIDTH 3 0
BBX 3 3 1 7
BITMAP
34
60
50
ENDCHAR
STARTCHAR parenleft
ENCODING 40
SWIDTH 478 0
DWIDTH 5 0
BBX 6 14 1 -3
BITMAP
0010
0180
0600
0D00
2800
3400
7000
A000
9000
9000
9000
6000
3000
1800
ENDCHAR
STARTCHAR parenright
ENCODING 41
SWIDTH 478 0
DWIDTH 5 0
BBX 6 14 -1 -3
BITMAP
0100
0240
01C0
00C0
00D0
00D0
00D0
00C0
0180
0240
0600
0D00
2400
9000
ENDCHAR
STARTCHAR asterisk
ENCODING 42
SWIDTH 518 0
DWIDTH 6 0
BBX 5 5 1 4
BITMAP
0900
5D00
2E40
2800
4600
ENDCHAR
STARTCHAR plus
ENCODING 43
SWIDTH 617 0
DWIDTH 7 0
BBX 5 6 1 1
BITMAP
0800
0800
0800
AE80
0800
0800
ENDCHAR
STARTCHAR comma
ENCODING 44
SWIDTH 312 0
DWIDTH 3 0
BBX 2 4 0 -2
BITMAP
10
70
60
80
ENDCHAR
STARTCHAR hyphen
ENCODING 45
SWIDTH 452 0
DWIDTH 5 0
BBX 3 1 1 3
BITMAP
A8
ENDCHAR
STARTCHAR period
ENCODING 46
SWIDTH 270 0
DWIDTH 3 0
BBX 2 2 0 0
BITMAP
B0
50
ENDCHAR
STARTCHAR slash
ENCODING 47
SWIDTH 405 0
DWIDTH 4 0
BBX 7 13 -1 -2
BITMAP
0004
000C
0024
0030
0090
00C0
0240
0700
0900
1800
2400
6000
9000
ENDCHAR
STARTCHAR zero
ENCODING 48
SWIDTH 621 0
DWIDTH 7 0
BBX 7 9 0 0
BITMAP
01B4
0718
0D1C
2818
3424
3070
70A0
71C0
2A00
ENDCHAR
STARTCHAR one
ENCODING 49
SWIDTH 405 0
DWIDTH 4 0
BBX 4 9 1 0
BITMAP
0D
7D
0C
18
24
30
60
90
80
ENDCHAR
STARTCHAR two
ENCODING 50
SWIDTH 524 0
DWIDTH 6 0
BBX 6 9 0 0
BITMAP
0690
1C60
2860
18E0
02C0
0B40
2D00
7000
AA80
ENDCHAR
STARTCHAR three
ENCODING 51
SWIDTH 537 0
DWIDTH 6 0
BBX 6 9 0 0
BITMAP
0690
1C30
1C70
18A0
0780
0640
1180
6240
6A00
ENDCHAR
STARTCHAR four
ENCODING 52
SWIDTH 529 0
DWIDTH 6 0
BBX 6 9 0 0
BITMAP
0900
0D00
1C50
2890
70C0
2BD0
0340
0600
0800
ENDCHAR
STARTCHAR five
ENCODING 53
SWIDTH 540 0
DWIDTH 6 0
BBX 7 9 0 0
BITMAP
07A8
0950
0C00
1E80
14D0
00D0
61C0
9280
6900
ENDCHAR
STARTCHAR six
ENCODING 54
SWIDTH 554 0
DWIDTH 6 0
BBX 7 9 0 0
BITMAP
01A0
0A24
1C60
2A80
3890
34A0
70D0
31C0
2A00
ENDCHAR
STARTCHAR seven
ENCODING 55
SWIDTH 473 0
DWIDTH 5 0
BBX 5 8 1 1
BITMAP
6AC0
0240
0A00
1C00
3400
7000
A000
9000
ENDCHAR
STARTCHAR eight
ENCODING 56
SWIDTH 524 0
DWIDTH 6 0
BBX 6 9 0 0
BITMAP
07D0
0D70
1830
1CA0
0B80
1B40
7240
6140
2A00
ENDCHAR
STARTCHAR nine
ENCODING 57
SWIDTH 554 0
DWIDTH 6 0
BBX 6 9 0 0
BITMAP
0690
0D30
2830
2470
24E0
1A90
00C0
6240
6900
ENDCHAR
STARTCHAR colon
ENCODING 58
SWIDTH 312 0
DWIDTH 3 0
BBX 3 6 0 0
BITMAP
28
14
00
00
B0
50
ENDCHAR
STARTCHAR semicolon
ENCODING 59
SWIDTH 312 0
DWIDTH 3 0
BBX 3 7 0 -2
BITMAP
2C
14
00
10
70
60
80
ENDCHAR
STARTCHAR less
ENCODING 60
SWIDTH 637 0
DWIDTH 7 0
BBX 5 6 1 0
BITMAP
0180
0A00
B400
A000
1A00
0180
ENDCHAR
STARTCHAR equal
ENCODING 61
SWIDTH 617 0
DWIDTH 7 0
BBX 5 3 1 3
BITMAP
AA80
0000
AA80
ENDCHAR
STARTCHAR greater
ENCODING 62
SWIDTH 606 0
DWIDTH 7 0
BBX 5 6 1 1
BITMAP
9000
2900
0680
0680
2800
9000
ENDCHAR
STARTCHAR question
ENCODING 63
SWIDTH 516 0
DWIDTH 6 0
BBX 5 9 1 0
BITMAP
1A40
24C0
2580
0740
2D00
3000
1000
9000
D000
ENDCHAR
STARTCHAR at
ENCODING 64
SWIDTH 905 0
DWIDTH 10 0
BBX 10 10 0 -2
BITMAP
00AA00
0641C0
186A60
218D60
624C60
631890
632980
729A00
280000
06A000
ENDCHAR
STARTCHAR A
ENCODING 65
SWIDTH 615 0
DWIDTH 7 0
BBX 8 9 -1 0
BITMAP
000B
0026
0089
024C
07BE
0D28
1834
2434
A028
ENDCHAR
STARTCHAR B
ENCODING 66
SWIDTH 551 0
DWIDTH 6 0
BBX 7 9 0 0
BITMAP
1AA0
2928
0D24
28A0
3F80
70D0
60D0
61C0
2A00
ENDCHAR
STARTCHAR C
ENCODING 67
SWIDTH 533 0
DWIDTH 6 0
BBX 7 9 0 0
BITMAP
01A4
0A18
1C28
28B0
3000
7000
7000
7040
2A40
ENDCHAR
STARTCHAR D
ENCODING 68
SWIDTH 630 0
DWIDTH 7 0
BBX 7 9 0 0
BITMAP
1EA0
1418
0A0C
1C0C
281C
3434
70A0
6280
6A00
ENDCHAR
STARTCHAR E
ENCODING 69
SWIDTH 509 0
DWIDTH 6 0
BBX 7 9 0 0
BITMAP
02A0
0E24
2870
2450
1A00
2D00
7000
A180
2A40
ENDCHAR
STARTCHAR F
ENCODING 70
SWIDTH 518 0
DWIDTH 6 0
BBX 7 9 0 0
BITMAP
2BA4
6240
0700
0A00
1F90
1C00
2800
3400
A000
ENDCHAR
STARTCHAR G
ENCODING 71
SWIDTH 598 0
DWIDTH 7 0
BBX 7 9 0 0
BITMAP
01A4
0B18
1C28
2870
3400
71E4
6080
7080
2A00
ENDCHAR
STARTCHAR H
ENCODING 72
SWIDTH 668 0
DWIDTH 7 0
BBX 9 9 -1 0
BITMAP
0B4180
028280
024340
034300
0BAF00
0A0900
0D0C00
281800
601D00
ENDCHAR
STARTCHAR I
ENCODING 73
SWIDTH 327 0
DWIDTH 4 0
BBX 4 9 0 0
BITMAP
2E
06
0A
0D
0C
18
34
70
90
ENDCHAR
STARTCHAR J
ENCODING 74
SWIDTH 393 0
DWIDTH 4 0
BBX 7 12 -2 -3
BITMAP
02F4
0628
0034
0034
0070
00A0
01C0
0280
0340
0A00
1800
A000
ENDCHAR
STARTCHAR K
ENCODING 75
SWIDTH 616 0
DWIDTH 7 0
BBX 8 9 -1 0
BITMAP
0F47
0247
034A
0718
0AA0
0EC0
1CA0
2874
601D
ENDCHAR
STARTCHAR L
ENCODING 76
SWIDTH 517 0
DWIDTH 6 0
BBX 6 9 0 0
BITMAP
01A0
0720
0D30
1DE0
2840
3400
7000
9540
EAC0
ENDCHAR
STARTCHAR M
ENCODING 77
SWIDTH 931 0
DWIDTH 10 0
BBX 12 9 -1 0
BITMAP
001D1D
006C6C
0198A8
0265A4
063230
097670
1878A0
3478A0
906074
ENDCHAR
STARTCHAR N
ENCODING 78
SWIDTH 708 0
DWIDTH 8 0
BBX 9 9 0 0
BITMAP
028340
0B8340
0A8340
268300
328900
61C800
A1D400
90F000
806000
ENDCHAR
STARTCHAR O
ENCODING 79
SWIDTH 655 0
DWIDTH 7 0
BBX 8 9 0 0
BITMAP
01A8
070D
0D09
280D
341C
7028
6070
30D0
1A40
ENDCHAR
STARTCHAR P
ENCODING 80
SWIDTH 553 0
DWIDTH 6 0
BBX 8 9 -1 0
BITMAP
06E8
0A0A
0286
034A
0728
0BE0
0D00
2800
6000
ENDCHAR
STARTCHAR Q
ENCODING 81
SWIDTH 655 0
DWIDTH 7 0
BBX 7 11 1 -2
BITMAP
0690
2830
7034
A030
D070
C0D0
D280
5A00
7D00
0780
00A8
ENDCHAR
STARTCHAR R
ENCODING 82
SWIDTH 623 0
DWIDTH 7 0
BBX 7 9 0 0
BITMAP
1BA0
1918
0A18
0D34
1DE0
2F40
3680
A1D0
80B4
ENDCHAR
STARTCHAR S
ENCODING 83
SWIDTH 474 0
DWIDTH 5 0
BBX 6 9 0 0
BITMAP
0690
1C30
2870
28E0
2C40
0E00
4700
9300
7900
ENDCHAR
STARTCHAR T
ENCODING 84
SWIDTH 471 0
DWIDTH 5 0
BBX 6 9 1 0
BITMAP
ABA0
8A00
0D00
1C00
1800
2400
3000
6000
8000
ENDCHAR
STARTCHAR U
ENCODING 85
SWIDTH 624 0
DWIDTH 7 0
BBX 8 9 0 0
BITMAP
0A09
0A0D
0D1C
1C38
2474
70F0
A1A0
95A0
7474
ENDCHAR
STARTCHAR V
ENCODING 86
SWIDTH 587 0
DWIDTH 6 0
BBX 7 9 1 0
BITMAP
A828
1C1C
2828
3470
70D0
9240
C900
E400
A000
ENDCHAR
STARTCHAR W
ENCODING 87
SWIDTH 941 0
DWIDTH 10 0
BBX 11 9 0 0
BITMAP
2A0028
07052C
0A1D1C
1D7818
28F424
367030
367090
787180
242900
ENDCHAR
STARTCHAR X
ENCODING 88
SWIDTH 552 0
DWIDTH 6 0
BBX 9 9 -1 0
BITMAP
018280
028900
02A800
02A000
01C000
02C000
06D000
18A000
603800
ENDCHAR
STARTCHAR Y
ENCODING 89
SWIDTH 580 0
DWIDTH 6 0
BBX 8 12 0 -3
BITMAP
0A09
0A0D
0D18
1834
3470
70E0
A290
95C0
A580
0300
0900
6400
ENDCHAR
STARTCHAR Z
ENCODING 90
SWIDTH 501 0
DWIDTH 6 0
BBX 7 9 0 0
BITMAP
1AB4
0074
01D0
0380
0E00
2800
6000
EA80
E080
ENDCHAR
STARTCHAR bracketleft
ENCODING 91
SWIDTH 396 0
DWIDTH 4 0
BBX 6 13 0 -2
BITMAP
0090
0280
0340
0700
0A00
0900
0C00
1800
2400
3000
6000
9000
A000
ENDCHAR
STARTCHAR backslash
ENCODING 92
SWIDTH 464 0
DWIDTH 5 0
BBX 4 13 0 -2
BITMAP
40
60
20
30
24
18
08
0C
09
05
06
03
02
ENDCHAR
STARTCHAR bracketright
ENCODING 93
SWIDTH 394 0
DWIDTH 4 0
BBX 6 13 -1 -2
BITMAP
00B0
0070
00A0
00D0
00C0
0180
0240
0300
0600
0900
0C00
1800
6400
ENDCHAR
STARTCHAR asciicircum
ENCODING 94
SWIDTH 540 0
DWIDTH 6 0
BBX 5 5 1 4
BITMAP
0C00
1D00
3700
6240
8080
ENDCHAR
STARTCHAR underscore
ENCODING 95
SWIDTH 530 0
DWIDTH 6 0
BBX 8 1 -2 -2
BITMAP
6AA9
ENDCHAR
STARTCHAR grave
ENCODING 96
SWIDTH 219 0
DWIDTH 2 0
BBX 2 3 0 6
BITMAP
60
60
20
ENDCHAR
STARTCHAR a
ENCODING 97
SWIDTH 541 0
DWIDTH 6 0
BBX 6 6 0 0
BITMAP
0AA0
28E0
70C0
A280
A780
79D0
ENDCHAR
STARTCHAR b
ENCODING 98
SWIDTH 525 0
DWIDTH 6 0
BBX 6 10 0 0
BITMAP
0900
0D00
0C00
1800
2AC0
38D0
70D0
61C0
9240
2900
ENDCHAR
STARTCHAR c
ENCODING 99
SWIDTH 465 0
DWIDTH 5 0
BBX 5 6 0 0
BITMAP
0A80
28C0
7180
A000
A100
3A00
ENDCHAR
STARTCHAR d
ENCODING 100
SWIDTH 557 0
DWIDTH 6 0
BBX 7 10 0 0
BITMAP
000C
0018
0024
0030
0AB0
28A0
30D0
61C0
A380
79D0
ENDCHAR
STARTCHAR e
ENCODING 101
SWIDTH 471 0
DWIDTH 5 0
BBX 5 6 0 0
BITMAP
0A80
28C0
7280
7A00
6040
2A00
ENDCHAR
STARTCHAR f
ENCODING 102
SWIDTH 393 0
DWIDTH 4 0
BBX 6 12 0 -2
BITMAP
0190
0370
0AA0
0940
0C00
6E40
2800
3400
3000
6000
D000
8000
ENDCHAR
STARTCHAR g
ENCODING 103
SWIDTH 526 0
DWIDTH 6 0
BBX 6 9 0 -3
BITMAP
0A90
28A0
70D0
A1C0
A380
7A40
0300
0900
2400
ENDCHAR
STARTCHAR h
ENCODING 104
SWIDTH 555 0
DWIDTH 6 0
BBX 6 10 0 0
BITMAP
0600
0A00
0900
0C00
19D0
29A0
38D0
71C0
A280
C1D0
ENDCHAR
STARTCHAR i
ENCODING 105
SWIDTH 286 0
DWIDTH 3 0
BBX 4 9 0 0
BITMAP
0D
04
00
28
28
30
60
A0
70
ENDCHAR
STARTCHAR j
ENCODING 106
SWIDTH 281 0
DWIDTH 3 0
BBX 5 12 -2 -3
BITMAP
01C0
0080
0000
0280
0280
0240
0300
0600
0900
0C00
2400
9000
ENDCHAR
STARTCHAR k
ENCODING 107
SWIDTH 497 0
DWIDTH 5 0
BBX 6 10 0 0
BITMAP
0600
0A00
0900
0C00
1890
24D0
3A40
7C00
AA00
8380
ENDCHAR
STARTCHAR l
ENCODING 108
SWIDTH 279 0
DWIDTH 3 0
BBX 4 10 0 0
BITMAP
09
09
0D
1C
28
24
30
60
A0
74
ENDCHAR
STARTCHAR m
ENCODING 109
SWIDTH 814 0
DWIDTH 9 0
BBX 9 6 0 0
BITMAP
299740
2A6640
38A700
71CA00
A28900
824B00
ENDCHAR
STARTCHAR n
ENCODING 110
SWIDTH 561 0
DWIDTH 6 0
BBX 6 6 0 0
BITMAP
29A0
29A0
38D0
71C0
A280
81D0
ENDCHAR
STARTCHAR o
ENCODING 111
SWIDTH 514 0
DWIDTH 6 0
BBX 6 6 0 0
BITMAP
0A80
28D0
70D0
A1C0
A340
2900
ENDCHAR
STARTCHAR p
ENCODING 112
SWIDTH 550 0
DWIDTH 6 0
BBX 7 9 -1 -3
BITMAP
0DB4
0B28
0D28
1C34
28A0
2A80
3000
6000
9000
ENDCHAR
STARTCHAR q
ENCODING 113
SWIDTH 533 0
DWIDTH 6 0
BBX 6 9 0 -3
BITMAP
0A90
28A0
70D0
61C0
A380
7A40
0300
0600
0600
ENDCHAR
STARTCHAR r
ENCODING 114
SWIDTH 407 0
DWIDTH 4 0
BBX 5 6 0 0
BITMAP
2580
2A80
3800
7400
A000
9000
ENDCHAR
STARTCHAR s
ENCODING 115
SWIDTH 423 0
DWIDTH 5 0
BBX 5 6 0 0
BITMAP
1B40
3580
2800
1D00
8900
A800
ENDCHAR
STARTCHAR t
ENCODING 116
SWIDTH 358 0
DWIDTH 4 0
BBX 4 8 1 0
BITMAP
04
24
B9
A0
90
C0
C4
B4
ENDCHAR
STARTCHAR u
ENCODING 117
SWIDTH 553 0
DWIDTH 6 0
BBX 6 6 0 0
BITMAP
2870
28A0
35D0
72C0
A680
A5D0
ENDCHAR
STARTCHAR v
ENCODING 118
SWIDTH 510 0
DWIDTH 6 0
BBX 6 6 0 0
BITMAP
28D0
2890
3490
7180
A240
7800
ENDCHAR
STARTCHAR w
ENCODING 119
SWIDTH 750 0
DWIDTH 8 0
BBX 8 6 0 0
BITMAP
2857
28D3
25C3
3385
6A88
61E0
ENDCHAR
STARTCHAR x
ENCODING 120
SWIDTH 467 0
DWIDTH 5 0
BBX 6 6 0 0
BITMAP
1490
2640
2D00
1C00
6C00
8640
ENDCHAR
STARTCHAR y
ENCODING 121
SWIDTH 549 0
DWIDTH 6 0
BBX 6 9 0 -3
BITMAP
2830
28A0
34D0
72C0
A680
6640
0300
0900
2400
ENDCHAR
STARTCHAR z
ENCODING 122
SWIDTH 430 0
DWIDTH 5 0
BBX 5 6 0 0
BITMAP
2AC0
0680
0A00
2800
A400
AA00
ENDCHAR
STARTCHAR braceleft
ENCODING 123
SWIDTH 424 0
DWIDTH 5 0
BBX 6 13 0 -2
BITMAP
00A0
01C0
0280
0240
0300
0A00
2800
1800
2800
2400
3000
6000
6400
ENDCHAR
STARTCHAR bar
ENCODING 124
SWIDTH 306 0
DWIDTH 3 0
BBX 2 13 1 -2
BITMAP
50
90
90
90
90
90
90
90
90
90
90
90
90
ENDCHAR
STARTCHAR braceright
ENCODING 125
SWIDTH 424 0
DWIDTH 5 0
BBX 6 13 -1 -2
BITMAP
00A0
0060
00A0
00D0
01C0
0180
02C0
0700
0900
0C00
1C00
2800
6000
ENDCHAR
STARTCHAR asciitilde
ENCODING 126
SWIDTH 624 0
DWIDTH 7 0
BBX 7 3 0 3
BITMAP
1A04
2354
5190
ENDCHAR
STARTCHAR nonbreakingspace
ENCODING 160
SWIDTH 293 0
DWIDTH 3 0
BBX 1 1 0 0
BITMAP
00
ENDCHAR
STARTCHAR exclamdown
ENCODING 161
SWIDTH 417 0
DWIDTH 5 0
BBX 4 10 0 -3
BITMAP
06
07
04
08
24
34
70
A0
A0
10
ENDCHAR
STARTCHAR cent
ENCODING 162
SWIDTH 487 0
DWIDTH 5 0
BBX 5 9 1 0
BITMAP
0200
0600
2A00
A340
D600
C000
D100
B800
5000
ENDCHAR
STARTCHAR sterling
ENCODING 163
SWIDTH 665 0
DWIDTH 7 0
BBX 9 9 -1 0
BITMAP
001A00
003540
00A340
00D900
06E000
024000
2B0000
678100
2DA900
ENDCHAR
STARTCHAR currency
ENCODING 164
SWIDTH 572 0
DWIDTH 6 0
BBX 7 8 0 0
BITMAP
0400
0AB4
0DA0
28A0
24D0
2580
2A80
5040
ENDCHAR
STARTCHAR yen
ENCODING 165
SWIDTH 583 0
DWIDTH 6 0
BBX 8 9 0 0
BITMAP
740A
1C28
0970
05D0
0780
1FD0
0700
2F80
0900
ENDCHAR
STARTCHAR brokenbar
ENCODING 166
SWIDTH 292 0
DWIDTH 3 0
BBX 2 13 1 -2
BITMAP
80
90
90
90
90
80
00
80
90
90
90
90
80
ENDCHAR
STARTCHAR section
ENCODING 167
SWIDTH 583 0
DWIDTH 6 0
BBX 7 13 0 -3
BITMAP
01A0
0718
0628
0760
0740
2AC0
34D0
3490
2DC0
0E00
4A00
D600
6800
ENDCHAR
STARTCHAR dieresis
ENCODING 168
SWIDTH 412 0
DWIDTH 5 0
BBX 5 2 0 7
BITMAP
7340
5100
ENDCHAR
STARTCHAR copyright
ENCODING 169
SWIDTH 871 0
DWIDTH 10 0
BBX 8 9 1 0
BITMAP
06A4
29A9
6723
8962
CC43
8C43
C689
6028
1A90
ENDCHAR
STARTCHAR ordfeminine
ENCODING 170
SWIDTH 564 0
DWIDTH 6 0
BBX 5 6 1 3
BITMAP
0A80
3680
6240
9300
9B00
6640
ENDCHAR
STARTCHAR guillemotleft
ENCODING 171
SWIDTH 662 0
DWIDTH 7 0
BBX 6 5 1 1
BITMAP
1860
A680
D700
7280
1440
ENDCHAR
STARTCHAR logicalnot
ENCODING 172
SWIDTH 729 0
DWIDTH 8 0
BBX 6 4 1 1
BITMAP
AAA0
0030
0030
0020
ENDCHAR
STARTCHAR uni00AD
ENCODING 173
SWIDTH 833 0
DWIDTH 9 0
BBX 1 1 0 0
BITMAP
00
ENDCHAR
STARTCHAR registered
ENCODING 174
SWIDTH 742 0
DWIDTH 8 0
BBX 7 8 1 1
BITMAP
0A90
2564
59C8
8988
8A08
99A4
6060
1A40
ENDCHAR
STARTCHAR macron
ENCODING 175
SWIDTH 392 0
DWIDTH 4 0
BBX 4 1 1 7
BITMAP
A9
ENDCHAR
STARTCHAR degree
ENCODING 176
SWIDTH 405 0
DWIDTH 4 0
BBX 4 4 1 5
BITMAP
29
96
99
64
ENDCHAR
STARTCHAR plusminus
ENCODING 177
SWIDTH 617 0
DWIDTH 7 0
BBX 5 8 1 0
BITMAP
0800
0800
0800
AE80
0800
0800
0000
AA80
ENDCHAR
STARTCHAR twosuperior
ENCODING 178
SWIDTH 458 0
DWIDTH 5 0
BBX 5 6 1 3
BITMAP
2A00
3340
2700
1D00
A000
A900
ENDCHAR
STARTCHAR threesuperior
ENCODING 179
SWIDTH 430 0
DWIDTH 5 0
BBX 4 7 1 2
BITMAP
1A
33
27
1C
4D
CC
A4
ENDCHAR
STARTCHAR acute
ENCODING 180
SWIDTH 322 0
DWIDTH 4 0
BBX 3 3 1 6
BITMAP
10
34
90
ENDCHAR
STARTCHAR mu
ENCODING 181
SWIDTH 618 0
DWIDTH 7 0
BBX 8 9 -1 -3
BITMAP
0249
071C
0D28
1C74
2DB4
3E28
3000
6000
6000
ENDCHAR
STARTCHAR paragraph
ENCODING 182
SWIDTH 739 0
DWIDTH 8 0
BBX 9 11 0 -1
BITMAP
006B80
02F240
0BE300
0FD700
0BD600
02C900
028C00
025800
732400
AA3000
685000
ENDCHAR
STARTCHAR periodcentered
ENCODING 183
SWIDTH 353 0
DWIDTH 4 0
BBX 2 2 1 3
BITMAP
B0
50
ENDCHAR
STARTCHAR cedilla
ENCODING 184
SWIDTH 301 0
DWIDTH 3 0
BBX 2 3 1 -3
BITMAP
50
60
D0
ENDCHAR
STARTCHAR onesuperior
ENCODING 185
SWIDTH 403 0
DWIDTH 4 0
BBX 4 6 1 3
BITMAP
0D
6D
1C
28
30
50
ENDCHAR
STARTCHAR ordmasculine
ENCODING 186
SWIDTH 498 0
DWIDTH 5 0
BBX 5 6 1 3
BITMAP
1A00
3640
A240
9340
9A00
6800
ENDCHAR
STARTCHAR guillemotright
ENCODING 187
SWIDTH 665 0
DWIDTH 7 0
BBX 6 5 1 1
BITMAP
9240
35D0
2890
9640
0400
ENDCHAR
STARTCHAR onequarter
ENCODING 188
SWIDTH 988 0
DWIDTH 11 0
BBX 9 10 1 0
BITMAP
000400
1C1800
7C3000
18A400
24CD00
625C80
832580
092B80
180600
240900
ENDCHAR
STARTCHAR onehalf
ENCODING 189
SWIDTH 988 0
DWIDTH 11 0
BBX 9 10 1 0
BITMAP
000800
1C2400
7C7000
589000
258A80
624CC0
8601C0
090740
181800
243A40
ENDCHAR
STARTCHAR threequarters
ENCODING 190
SWIDTH 1007 0
DWIDTH 11 0
BBX 10 10 0 0
BITMAP
000040
0B4300
198600
064D40
0A2980
563260
689630
00C6E0
024080
020140
ENDCHAR
STARTCHAR questiondown
ENCODING 191
SWIDTH 516 0
DWIDTH 6 0
BBX 5 9 0 -2
BITMAP
01C0
0180
0100
0300
1D00
7400
D600
CA00
6800
ENDCHAR
STARTCHAR Agrave
ENCODING 192
SWIDTH 615 0
DWIDTH 7 0
BBX 8 12 -1 0
BITMAP
0004
000D
0001
000B
0026
0089
024C
07BE
0D28
1834
2434
A028
ENDCHAR
STARTCHAR Aacute
ENCODING 193
SWIDTH 615 0
DWIDTH 7 0
BBX 9 12 -1 0
BITMAP
000040
000280
000100
000B00
002600
008900
024C00
07BE00
0D2800
183400
243400
A02800
ENDCHAR
STARTCHAR Acircumflex
ENCODING 194
SWIDTH 615 0
DWIDTH 7 0
BBX 9 12 -1 0
BITMAP
000100
000B40
001440
000B00
002600
008900
024C00
07BE00
0D2800
183400
243400
A02800
ENDCHAR
STARTCHAR Atilde
ENCODING 195
SWIDTH 615 0
DWIDTH 7 0
BBX 9 11 -1 0
BITMAP
001A80
000000
000B00
002600
008900
024C00
07BE00
0D2800
183400
243400
A02800
ENDCHAR
STARTCHAR Adieresis
ENCODING 196
SWIDTH 615 0
DWIDTH 7 0
BBX 9 12 -1 0
BITMAP
001440
0029C0
000000
000B00
002600
008900
024C00
07BE00
0D2800
183400
243400
A02C00
ENDCHAR
STARTCHAR Aring
ENCODING 197
SWIDTH 615 0
DWIDTH 7 0
BBX 9 12 -1 0
BITMAP
000640
000D80
000980
000F00
007A00
00D900
024C00
0BBD00
0D2400
183400
343400
A02800
ENDCHAR
STARTCHAR AE
ENCODING 198
SWIDTH 878 0
DWIDTH 10 0
BBX 12 9 -1 0
BITMAP
001BB8
006785
00DA1C
028A14
0BAF80
0D0E00
181C10
341DA0
A00B80
ENDCHAR
STARTCHAR Ccedilla
ENCODING 199
SWIDTH 533 0
DWIDTH 6 0
BBX 7 12 0 -3
BITMAP
01A4
0618
1C28
2870
3400
7000
7000
7040
2E40
0800
1800
1400
ENDCHAR
STARTCHAR Egrave
ENCODING 200
SWIDTH 509 0
DWIDTH 6 0
BBX 7 12 0 0
BITMAP
0040
01C0
0050
02A0
0E24
2870
2450
1A00
2D00
7000
A180
2A40
ENDCHAR
STARTCHAR Eacute
ENCODING 201
SWIDTH 509 0
DWIDTH 6 0
BBX 7 12 0 0
BITMAP
0010
0024
0050
02A0
0E24
2870
2450
1A00
2D00
7000
A180
2A40
ENDCHAR
STARTCHAR Ecircumflex
ENCODING 202
SWIDTH 509 0
DWIDTH 6 0
BBX 7 12 0 0
BITMAP
0010
01B4
0114
02A0
0E24
2870
2450
1A00
2D00
7000
A180
2A40
ENDCHAR
STARTCHAR Edieresis
ENCODING 203
SWIDTH 509 0
DWIDTH 6 0
BBX 7 12 0 0
BITMAP
0144
035C
0000
02A0
0E24
2870
2450
1A00
2D00
7000
A180
2A40
ENDCHAR
STARTCHAR Igrave
ENCODING 204
SWIDTH 327 0
DWIDTH 4 0
BBX 4 12 0 0
BITMAP
04
0A
01
2E
06
0A
0D
0C
18
34
70
90
ENDCHAR
STARTCHAR Iacute
ENCODING 205
SWIDTH 327 0
DWIDTH 4 0
BBX 5 12 0 0
BITMAP
0040
01C0
0100
2E00
0600
0A00
0D00
0C00
1800
3400
7000
9000
ENDCHAR
STARTCHAR Icircumflex
ENCODING 206
SWIDTH 327 0
DWIDTH 4 0
BBX 5 12 0 0
BITMAP
0100
0680
0440
2E00
0600
0A00
0D00
0C00
1800
3400
7000
9000
ENDCHAR
STARTCHAR Idieresis
ENCODING 207
SWIDTH 327 0
DWIDTH 4 0
BBX 6 12 0 0
BITMAP
0450
1CD0
0000
2E00
0600
0A00
0D00
0C00
1800
3400
7000
9000
ENDCHAR
STARTCHAR Eth
ENCODING 208
SWIDTH 630 0
DWIDTH 7 0
BBX 7 9 0 0
BITMAP
2EA0
1528
0D0C
7F5C
3418
3034
70A0
A280
6900
ENDCHAR
STARTCHAR Ntilde
ENCODING 209
SWIDTH 708 0
DWIDTH 8 0
BBX 9 11 0 0
BITMAP
002A40
000000
028340
0B8340
0A8340
268300
328900
61C800
A1D400
90F000
806000
ENDCHAR
STARTCHAR Ograve
ENCODING 210
SWIDTH 655 0
DWIDTH 7 0
BBX 8 12 0 0
BITMAP
0010
0070
0014
01A8
070D
0D09
280D
341C
7028
6070
30D0
1A40
ENDCHAR
STARTCHAR Oacute
ENCODING 211
SWIDTH 655 0
DWIDTH 7 0
BBX 8 12 0 0
BITMAP
0004
0009
0014
01A8
070D
0D09
280D
341C
7028
6070
30D0
1A40
ENDCHAR
STARTCHAR Ocircumflex
ENCODING 212
SWIDTH 655 0
DWIDTH 7 0
BBX 8 12 0 0
BITMAP
0004
006D
0045
01A8
070D
0D09
280D
341C
7028
6070
30D0
1A40
ENDCHAR
STARTCHAR Otilde
ENCODING 213
SWIDTH 655 0
DWIDTH 7 0
BBX 8 11 0 0
BITMAP
00AA
0000
01A8
070D
0D09
280D
341C
7028
6070
30D0
1A40
ENDCHAR
STARTCHAR Odieresis
ENCODING 214
SWIDTH 655 0
DWIDTH 7 0
BBX 8 12 0 0
BITMAP
0051
00D7
0000
01A8
070D
0D09
280D
341C
7028
6070
30D0
1A40
ENDCHAR
STARTCHAR multiply
ENCODING 215
SWIDTH 573 0
DWIDTH 6 0
BBX 5 5 1 2
BITMAP
9180
2600
1C00
2600
9240
ENDCHAR
STARTCHAR Oslash
ENCODING 216
SWIDTH 655 0
DWIDTH 7 0
BBX 7 11 1 -1
BITMAP
0018
02F4
0DB8
2898
7228
A234
D870
D4D0
E280
BA00
8000
ENDCHAR
STARTCHAR Ugrave
ENCODING 217
SWIDTH 624 0
DWIDTH 7 0
BBX 8 12 0 0
BITMAP
0040
00D0
0010
0A09
0A0D
0D1C
1C38
2474
70F0
A1A0
95A0
7474
ENDCHAR
STARTCHAR Uacute
ENCODING 218
SWIDTH 624 0
DWIDTH 7 0
BBX 8 12 0 0
BITMAP
0004
0018
0010
0A09
0A0D
0D1C
1C38
2474
70F0
A1A0
95A0
7474
ENDCHAR
STARTCHAR Ucircumflex
ENCODING 219
SWIDTH 624 0
DWIDTH 7 0
BBX 8 12 0 0
BITMAP
0010
00B8
0144
0A09
0A0D
0D1C
1C38
2474
70F0
A1A0
95A0
7474
ENDCHAR
STARTCHAR Udieresis
ENCODING 220
SWIDTH 624 0
DWIDTH 7 0
BBX 8 12 0 0
BITMAP
0144
028D
0000
0A09
0A0D
0D1C
1C38
2474
70F0
A1A0
95A0
7474
ENDCHAR
STARTCHAR Yacute
ENCODING 221
SWIDTH 580 0
DWIDTH 6 0
BBX 8 15 0 -3
BITMAP
0004
0028
0010
0A09
0A0D
0D18
1834
3470
70E0
A290
95C0
A580
0300
0900
6400
ENDCHAR
STARTCHAR Thorn
ENCODING 222
SWIDTH 527 0
DWIDTH 6 0
BBX 7 9 -1 0
BITMAP
0F40
0340
03A0
0718
0A1C
0D74
1E90
2400
6000
ENDCHAR
STARTCHAR germandbls
ENCODING 223
SWIDTH 520 0
DWIDTH 6 0
BBX 7 12 -1 -2
BITMAP
00A4
028C
0318
0624
09A0
0DC0
1CD0
1870
2624
36A0
7000
5000
ENDCHAR
STARTCHAR agrave
ENCODING 224
SWIDTH 541 0
DWIDTH 6 0
BBX 6 9 0 0
BITMAP
0240
0240
0040
0AA0
28E0
70C0
A280
A780
79D0
ENDCHAR
STARTCHAR aacute
ENCODING 225
SWIDTH 541 0
DWIDTH 6 0
BBX 6 9 0 0
BITMAP
0090
0180
0100
0AA0
28E0
70C0
A280
A780
79D0
ENDCHAR
STARTCHAR acircumflex
ENCODING 226
SWIDTH 541 0
DWIDTH 6 0
BBX 6 9 0 0
BITMAP
0090
02A0
0410
0AA0
28E0
70C0
A280
A780
79D0
ENDCHAR
STARTCHAR atilde
ENCODING 227
SWIDTH 541 0
DWIDTH 6 0
BBX 7 9 0 0
BITMAP
0654
04A0
0000
0AA0
28E0
70C0
A280
A780
79D0
ENDCHAR
STARTCHAR adieresis
ENCODING 228
SWIDTH 541 0
DWIDTH 6 0
BBX 7 9 0 0
BITMAP
0A74
0520
0000
0AA0
28E0
70C0
A280
A780
79D0
ENDCHAR
STARTCHAR aring
ENCODING 229
SWIDTH 541 0
DWIDTH 6 0
BBX 6 9 0 0
BITMAP
0290
0660
0280
0AA0
28E0
70C0
A280
A780
79D0
ENDCHAR
STARTCHAR ae
ENCODING 230
SWIDTH 769 0
DWIDTH 8 0
BBX 9 6 0 0
BITMAP
0ABA00
28E340
70DB00
A2E900
A6C100
78A900
ENDCHAR
STARTCHAR ccedilla
ENCODING 231
SWIDTH 465 0
DWIDTH 5 0
BBX 5 9 0 -3
BITMAP
0A80
28C0
7180
A000
A100
2A00
1800
2400
1000
ENDCHAR
STARTCHAR egrave
ENCODING 232
SWIDTH 471 0
DWIDTH 5 0
BBX 5 9 0 0
BITMAP
0700
0300
0100
0A80
28C0
7280
7A00
6040
2A00
ENDCHAR
STARTCHAR eacute
ENCODING 233
SWIDTH 471 0
DWIDTH 5 0
BBX 5 9 0 0
BITMAP
01C0
0240
0100
0A80
28C0
7280
7A00
6040
2A00
ENDCHAR
STARTCHAR ecircumflex
ENCODING 234
SWIDTH 471 0
DWIDTH 5 0
BBX 6 9 0 0
BITMAP
0080
06D0
0450
0A80
28C0
7280
7A00
6040
2A00
ENDCHAR
STARTCHAR edieresis
ENCODING 235
SWIDTH 471 0
DWIDTH 5 0
BBX 6 9 0 0
BITMAP
0DA0
0850
0000
0A80
28C0
7280
7A00
6040
2A00
ENDCHAR
STARTCHAR igrave
ENCODING 236
SWIDTH 286 0
DWIDTH 3 0
BBX 3 9 0 0
BITMAP
18
18
04
28
28
30
60
A0
70
ENDCHAR
STARTCHAR iacute
ENCODING 237
SWIDTH 286 0
DWIDTH 3 0
BBX 4 9 0 0
BITMAP
06
09
14
28
28
30
60
A0
70
ENDCHAR
STARTCHAR icircumflex
ENCODING 238
SWIDTH 286 0
DWIDTH 3 0
BBX 4 9 0 0
BITMAP
06
1B
51
28
28
30
60
A0
70
ENDCHAR
STARTCHAR idieresis
ENCODING 239
SWIDTH 286 0
DWIDTH 3 0
BBX 5 9 0 0
BITMAP
7280
2140
0000
2800
2800
3000
6000
A000
7000
ENDCHAR
STARTCHAR eth
ENCODING 240
SWIDTH 524 0
DWIDTH 6 0
BBX 7 10 0 0
BITMAP
0080
0064
01F4
0160
0AA0
28A0
70D0
A1C0
A340
7900
ENDCHAR
STARTCHAR ntilde
ENCODING 241
SWIDTH 561 0
DWIDTH 6 0
BBX 7 9 0 0
BITMAP
0654
04A0
0000
29A0
29A0
38D0
71C0
A280
81D0
ENDCHAR
STARTCHAR ograve
ENCODING 242
SWIDTH 514 0
DWIDTH 6 0
BBX 6 9 0 0
BITMAP
0240
0240
0040
0A80
28D0
70D0
A1C0
A340
2900
ENDCHAR
STARTCHAR oacute
ENCODING 243
SWIDTH 514 0
DWIDTH 6 0
BBX 6 9 0 0
BITMAP
0090
01C0
0100
0A80
28D0
70D0
A1C0
A340
2900
ENDCHAR
STARTCHAR ocircumflex
ENCODING 244
SWIDTH 514 0
DWIDTH 6 0
BBX 6 9 0 0
BITMAP
0050
02A0
0410
0A80
28D0
70D0
A1C0
A340
2900
ENDCHAR
STARTCHAR otilde
ENCODING 245
SWIDTH 514 0
DWIDTH 6 0
BBX 7 9 0 0
BITMAP
0684
04A0
0000
0A80
28D0
70D0
A1C0
A340
2900
ENDCHAR
STARTCHAR odieresis
ENCODING 246
SWIDTH 514 0
DWIDTH 6 0
BBX 7 9 0 0
BITMAP
0A34
0520
0000
0A80
28D0
70D0
A1C0
A340
2900
ENDCHAR
STARTCHAR divide
ENCODING 247
SWIDTH 617 0
DWIDTH 7 0
BBX 5 7 1 1
BITMAP
0800
0900
0000
AA80
0000
1C00
0400
ENDCHAR
STARTCHAR oslash
ENCODING 248
SWIDTH 514 0
DWIDTH 6 0
BBX 6 8 0 -1
BITMAP
0060
0AC0
2AD0
75D0
A9C0
B740
7900
5000
ENDCHAR
STARTCHAR ugrave
ENCODING 249
SWIDTH 553 0
DWIDTH 6 0
BBX 6 9 0 0
BITMAP
0180
0180
0040
2870
28A0
35C0
7280
AA80
B5D0
ENDCHAR
STARTCHAR uacute
ENCODING 250
SWIDTH 553 0
DWIDTH 6 0
BBX 6 9 0 0
BITMAP
0060
00D0
0100
2870
28A0
35D0
72C0
A680
A5D0
ENDCHAR
STARTCHAR ucircumflex
ENCODING 251
SWIDTH 553 0
DWIDTH 6 0
BBX 6 9 0 0
BITMAP
0060
02B0
0510
2870
28A0
35D0
72C0
A680
A5D0
ENDCHAR
STARTCHAR udieresis
ENCODING 252
SWIDTH 553 0
DWIDTH 6 0
BBX 7 9 0 0
BITMAP
0738
0114
0000
2870
28A0
35D0
72C0
A680
A5D0
ENDCHAR
STARTCHAR yacute
ENCODING 253
SWIDTH 549 0
DWIDTH 6 0
BBX 6 12 0 -3
BITMAP
0090
0180
0100
2830
28A0
34D0
72C0
A680
6640
0300
0900
2400
ENDCHAR
STARTCHAR thorn
ENCODING 254
SWIDTH 552 0
DWIDTH 6 0
BBX 7 13 -1 -3
BITMAP
0180
0280
0240
0300
06B4
0B28
0D28
1C34
28A0
3A80
7000
A000
9000
ENDCHAR
STARTCHAR ydieresis
ENCODING 255
SWIDTH 549 0
DWIDTH 6 0
BBX 7 12 0 -3
BITMAP
0A74
0520
0000
2830
28A0
34D0
72C0
A680
6640
0300
0900
2400
ENDCHAR
STARTCHAR Amacron
ENCODING 256
SWIDTH 615 0
DWIDTH 7 0
BBX 9 11 -1 0
BITMAP
001A80
000000
000B00
002600
008900
024C00
07BE00
0D2800
183400
243400
A02800
ENDCHAR
STARTCHAR amacron
ENCODING 257
SWIDTH 543 0
DWIDTH 6 0
BBX 6 8 0 0
BITMAP
06A0
0000
0AA0
28E0
70C0
A280
A780
79D0
ENDCHAR
STARTCHAR Abreve
ENCODING 258
SWIDTH 615 0
DWIDTH 7 0
BBX 9 12 -1 0
BITMAP
000440
000A40
000000
000B00
002600
008900
024C00
07BE00
0D2800
183400
243400
A02C00
ENDCHAR
STARTCHAR abreve
ENCODING 259
SWIDTH 543 0
DWIDTH 6 0
BBX 6 9 0 0
BITMAP
0220
0290
0000
0AA0
28E0
70C0
A280
A780
79D0
ENDCHAR
STARTCHAR Aogonek
ENCODING 260
SWIDTH 615 0
DWIDTH 7 0
BBX 8 12 -1 -3
BITMAP
000B
0026
0089
024C
07BE
0D28
1834
2434
A02C
0020
00A0
0060
ENDCHAR
STARTCHAR aogonek
ENCODING 261
SWIDTH 541 0
DWIDTH 6 0
BBX 6 9 0 -3
BITMAP
0AA0
28E0
70C0
A280
A780
79D0
0180
0300
0240
ENDCHAR
STARTCHAR Cacute
ENCODING 262
SWIDTH 533 0
DWIDTH 6 0
BBX 8 12 0 0
BITMAP
0004
000D
0014
01A4
0A18
1C28
28B0
3000
7000
7000
7040
2A40
ENDCHAR
STARTCHAR cacute
ENCODING 263
SWIDTH 468 0
DWIDTH 5 0
BBX 6 9 0 0
BITMAP
0070
0090
0140
0A80
28C0
7180
A000
A100
2A00
ENDCHAR
STARTCHAR Ccircumflex
ENCODING 264
SWIDTH 533 0
DWIDTH 6 0
BBX 8 12 0 0
BITMAP
0004
006C
0045
01A4
0A18
1C28
28B0
3000
7000
7000
7040
2A40
ENDCHAR
STARTCHAR ccircumflex
ENCODING 265
SWIDTH 468 0
DWIDTH 5 0
BBX 6 9 0 0
BITMAP
0090
02A0
0410
0A80
28C0
7180
A000
A100
2A00
ENDCHAR
STARTCHAR Cdotaccent
ENCODING 266
SWIDTH 533 0
DWIDTH 6 0
BBX 7 12 0 0
BITMAP
0010
0074
0000
01A4
0A18
1C28
28B0
3000
7000
7000
7040
2A40
ENDCHAR
STARTCHAR cdotaccent
ENCODING 267
SWIDTH 468 0
DWIDTH 5 0
BBX 5 9 0 0
BITMAP
01C0
0140
0000
0A80
28C0
7180
A000
A100
2A00
ENDCHAR
STARTCHAR Ccaron
ENCODING 268
SWIDTH 533 0
DWIDTH 6 0
BBX 8 12 0 0
BITMAP
0041
0079
0010
01A4
0A18
1C28
28B0
3000
7000
7000
7040
2A40
ENDCHAR
STARTCHAR ccaron
ENCODING 269
SWIDTH 468 0
DWIDTH 5 0
BBX 7 9 0 0
BITMAP
0214
02A0
0000
0A80
28C0
7180
A000
A100
2A00
ENDCHAR
STARTCHAR Dcaron
ENCODING 270
SWIDTH 630 0
DWIDTH 7 0
BBX 7 12 0 0
BITMAP
0044
00E8
0050
1EA0
1418
0A0C
1C0C
281C
3434
70A0
6280
6A00
ENDCHAR
STARTCHAR dcaron
ENCODING 271
SWIDTH 557 0
DWIDTH 6 0
BBX 9 10 0 0
BITMAP
000DC0
001980
002500
003000
0AB000
28A000
30D000
61C000
A38000
79D000
ENDCHAR
STARTCHAR Dcroat
ENCODING 272
SWIDTH 630 0
DWIDTH 7 0
BBX 7 9 0 0
BITMAP
1AA0
2428
0A0C
1C1C
BF58
3434
70A0
A280
7900
ENDCHAR
STARTCHAR dcroat
ENCODING 273
SWIDTH 557 0
DWIDTH 6 0
BBX 8 10 0 0
BITMAP
000C
001C
01BD
0034
0AB0
28A0
30D0
61C0
A3C0
79D0
ENDCHAR
STARTCHAR Emacron
ENCODING 274
SWIDTH 509 0
DWIDTH 6 0
BBX 7 11 0 0
BITMAP
02A4
0000
02A0
0E24
2870
2450
1A00
2D00
7000
A180
2A40
ENDCHAR
STARTCHAR emacron
ENCODING 275
SWIDTH 471 0
DWIDTH 5 0
BBX 6 8 0 0
BITMAP
0A90
0000
0A80
28C0
7280
7A00
6040
2A00
ENDCHAR
STARTCHAR Ebreve
ENCODING 276
SWIDTH 509 0
DWIDTH 6 0
BBX 7 12 0 0
BITMAP
0044
01A4
0000
02A0
0E24
2870
2450
1A00
2D00
7000
A180
2A40
ENDCHAR
STARTCHAR ebreve
ENCODING 277
SWIDTH 471 0
DWIDTH 5 0
BBX 6 9 0 0
BITMAP
0910
0680
0000
0A80
28C0
7280
7A00
6040
2A00
ENDCHAR
STARTCHAR Edotaccent
ENCODING 278
SWIDTH 509 0
DWIDTH 6 0
BBX 7 12 0 0
BITMAP
0040
00D0
0000
02A0
0E24
2870
2450
1A00
2D00
7000
A180
2A40
ENDCHAR
STARTCHAR edotaccent
ENCODING 279
SWIDTH 471 0
DWIDTH 5 0
BBX 5 9 0 0
BITMAP
0280
0140
0000
0A80
28C0
7280
7A00
6040
2A00
ENDCHAR
STARTCHAR Eogonek
ENCODING 280
SWIDTH 509 0
DWIDTH 6 0
BBX 7 12 0 -3
BITMAP
02A0
0E24
2870
2450
1A00
2D00
7000
A180
2B40
0800
2400
2800
ENDCHAR
STARTCHAR eogonek
ENCODING 281
SWIDTH 471 0
DWIDTH 5 0
BBX 5 9 0 -3
BITMAP
0A80
28C0
7280
7A00
6040
2B00
0800
2400
1800
ENDCHAR
STARTCHAR Ecaron
ENCODING 282
SWIDTH 509 0
DWIDTH 6 0
BBX 7 12 0 0
BITMAP
0144
01E8
0040
02A0
0E24
2870
2450
1A00
2D00
7000
A180
2A40
ENDCHAR
STARTCHAR ecaron
ENCODING 283
SWIDTH 471 0
DWIDTH 5 0
BBX 6 9 0 0
BITMAP
0620
0390
0100
0A80
28C0
7280
7A00
6040
2A00
ENDCHAR
STARTCHAR Gcircumflex
ENCODING 284
SWIDTH 598 0
DWIDTH 7 0
BBX 8 12 0 0
BITMAP
0004
006C
0045
01A4
0B18
1C28
2870
3400
71E4
6080
7080
2A00
ENDCHAR
STARTCHAR gcircumflex
ENCODING 285
SWIDTH 526 0
DWIDTH 6 0
BBX 6 12 0 -3
BITMAP
0090
02A0
0410
0A90
28A0
70D0
A1C0
A380
7A40
0300
0900
2400
ENDCHAR
STARTCHAR Gbreve
ENCODING 286
SWIDTH 598 0
DWIDTH 7 0
BBX 8 12 0 0
BITMAP
0051
0069
0000
01A4
0B18
1C28
2870
3400
71E4
6080
7080
2A00
ENDCHAR
STARTCHAR gbreve
ENCODING 287
SWIDTH 526 0
DWIDTH 6 0
BBX 6 12 0 -3
BITMAP
0220
0290
0000
0A90
28A0
70D0
A1C0
A380
7A40
0300
0900
2400
ENDCHAR
STARTCHAR Gdotaccent
ENCODING 288
SWIDTH 598 0
DWIDTH 7 0
BBX 7 12 0 0
BITMAP
0010
0070
0000
01A4
0B18
1C28
2870
3400
71E4
6080
7080
2A00
ENDCHAR
STARTCHAR gdotaccent
ENCODING 289
SWIDTH 526 0
DWIDTH 6 0
BBX 6 12 0 -3
BITMAP
01C0
0040
0000
0A90
28A0
70D0
A1C0
A380
7A40
0300
0900
2400
ENDCHAR
STARTCHAR Gcommaaccent
ENCODING 290
SWIDTH 598 0
DWIDTH 7 0
BBX 7 12 0 -3
BITMAP
01A4
0B18
1C28
2870
3400
71E4
6080
7080
2A00
1400
2800
2000
ENDCHAR
STARTCHAR gcommaaccent
ENCODING 291
SWIDTH 526 0
DWIDTH 6 0
BBX 6 12 0 -3
BITMAP
0080
01C0
0000
0A90
28A0
70D0
A1C0
A380
7A40
0300
0900
2400
ENDCHAR
STARTCHAR Hcircumflex
ENCODING 292
SWIDTH 668 0
DWIDTH 7 0
BBX 9 12 -1 0
BITMAP
000400
002D00
005100
0B4180
028280
024340
034300
0BAF00
0A0900
0D0C00
281800
601D00
ENDCHAR
STARTCHAR hcircumflex
ENCODING 293
SWIDTH 555 0
DWIDTH 6 0
BBX 6 11 0 0
BITMAP
0740
2980
0900
0900
0C00
1DD0
29A0
38D0
71C0
A280
C1D0
ENDCHAR
STARTCHAR Hbar
ENCODING 294
SWIDTH 668 0
DWIDTH 7 0
BBX 10 9 -1 0
BITMAP
0B4180
028280
0BAB90
034300
0BAF00
0A0900
0D0C00
281800
601D00
ENDCHAR
STARTCHAR hbar
ENCODING 295
SWIDTH 555 0
DWIDTH 6 0
BBX 6 10 0 0
BITMAP
0600
0A00
1F80
0D00
1DD0
19A0
28D0
71C0
A280
C1D0
ENDCHAR
STARTCHAR Itilde
ENCODING 296
SWIDTH 327 0
DWIDTH 4 0
BBX 6 11 0 0
BITMAP
1A90
0000
2E00
0600
0A00
0D00
0C00
1800
3400
7000
9000
ENDCHAR
STARTCHAR itilde
ENCODING 297
SWIDTH 286 0
DWIDTH 3 0
BBX 5 9 0 0
BITMAP
2840
4600
0000
2800
2800
3000
6000
A000
7000
ENDCHAR
STARTCHAR Imacron
ENCODING 298
SWIDTH 327 0
DWIDTH 4 0
BBX 5 11 0 0
BITMAP
1A80
0000
2E00
0600
0A00
0D00
0C00
1800
3400
7000
9000
ENDCHAR
STARTCHAR imacron
ENCODING 299
SWIDTH 286 0
DWIDTH 3 0
BBX 4 8 0 0
BITMAP
6A
00
28
28
30
60
A0
70
ENDCHAR
STARTCHAR Ibreve
ENCODING 300
SWIDTH 327 0
DWIDTH 4 0
BBX 5 12 0 0
BITMAP
0400
0A80
0000
2E00
0600
0A00
0D00
0C00
1800
3400
7000
9000
ENDCHAR
STARTCHAR ibreve
ENCODING 301
SWIDTH 286 0
DWIDTH 3 0
BBX 5 9 0 0
BITMAP
2540
1A00
0000
2800
2800
3000
6000
A000
7000
ENDCHAR
STARTCHAR Iogonek
ENCODING 302
SWIDTH 327 0
DWIDTH 4 0
BBX 6 12 -2 -3
BITMAP
02E0
0060
00A0
00D0
00C0
0180
0240
0700
0D00
2400
6000
6400
ENDCHAR
STARTCHAR iogonek
ENCODING 303
SWIDTH 297 0
DWIDTH 3 0
BBX 4 12 0 -3
BITMAP
0A
05
00
28
18
24
30
60
74
60
C0
90
ENDCHAR
STARTCHAR Idotaccent
ENCODING 304
SWIDTH 327 0
DWIDTH 4 0
BBX 4 12 0 0
BITMAP
05
0A
00
2E
06
0A
0D
0C
18
34
70
90
ENDCHAR
STARTCHAR dotlessi
ENCODING 305
SWIDTH 286 0
DWIDTH 3 0
BBX 3 6 0 0
BITMAP
28
28
30
60
A0
70
ENDCHAR
STARTCHAR IJ
ENCODING 306
SWIDTH 720 0
DWIDTH 8 0
BBX 9 12 0 -3
BITMAP
2E2F00
06A340
0A0700
0D0A00
0C0D00
181C00
342800
703400
90A000
00D000
024000
090000
ENDCHAR
STARTCHAR ij
ENCODING 307
SWIDTH 567 0
DWIDTH 6 0
BBX 7 12 0 -3
BITMAP
0D34
0420
0000
28A0
28A0
30A0
60D0
A1C0
7280
0300
0900
1800
ENDCHAR
STARTCHAR Jcircumflex
ENCODING 308
SWIDTH 393 0
DWIDTH 4 0
BBX 8 15 -2 -3
BITMAP
0004
002D
0041
02F4
0628
0034
0034
0070
00A0
01C0
0280
0340
0A00
1800
A000
ENDCHAR
STARTCHAR jcircumflex
ENCODING 309
SWIDTH 282 0
DWIDTH 3 0
BBX 6 12 -2 -3
BITMAP
00A0
0630
0000
0280
0280
0240
0300
0600
0900
0C00
2400
9000
ENDCHAR
STARTCHAR Kcommaaccent
ENCODING 310
SWIDTH 616 0
DWIDTH 7 0
BBX 8 12 -1 -3
BITMAP
0F47
0247
034A
0718
0AA0
0EC0
1CA0
2874
601D
0500
0600
0900
ENDCHAR
STARTCHAR kcommaaccent
ENCODING 311
SWIDTH 497 0
DWIDTH 5 0
BBX 6 13 0 -3
BITMAP
0600
0A00
0900
0C00
1890
24D0
3A40
7C00
AA00
8380
1000
3400
2000
ENDCHAR
STARTCHAR kgreenlandic
ENCODING 312
SWIDTH 497 0
DWIDTH 5 0
BBX 6 6 0 0
BITMAP
2890
28D0
3A80
7D00
AA00
D280
ENDCHAR
STARTCHAR Lacute
ENCODING 313
SWIDTH 517 0
DWIDTH 6 0
BBX 7 12 0 0
BITMAP
0004
0024
0010
01A0
0720
0D30
1DE0
2840
3400
7000
9540
EAC0
ENDCHAR
STARTCHAR lacute
ENCODING 314
SWIDTH 279 0
DWIDTH 3 0
BBX 5 12 0 0
BITMAP
0040
0180
0100
0900
0D00
0C00
1800
2400
3000
6000
A000
6400
ENDCHAR
STARTCHAR Lcommaaccent
ENCODING 315
SWIDTH 517 0
DWIDTH 6 0
BBX 6 12 0 -3
BITMAP
01A0
0720
0D30
1DE0
2840
3400
7000
9540
EAC0
1000
3000
5000
ENDCHAR
STARTCHAR lcommaaccent
ENCODING 316
SWIDTH 279 0
DWIDTH 3 0
BBX 4 13 0 -3
BITMAP
09
09
0D
1C
28
24
30
60
A0
74
50
A0
80
ENDCHAR
STARTCHAR Lcaron
ENCODING 317
SWIDTH 517 0
DWIDTH 6 0
BBX 9 12 0 0
BITMAP
000100
000340
000200
01A000
072000
0D3000
1DE000
284000
340000
700000
954000
EAC000
ENDCHAR
STARTCHAR lcaron
ENCODING 318
SWIDTH 467 0
DWIDTH 5 0
BBX 6 10 0 0
BITMAP
0930
0920
0D50
1C00
2800
2400
3000
6000
A000
7400
ENDCHAR
STARTCHAR Ldot
ENCODING 319
SWIDTH 668 0
DWIDTH 7 0
BBX 8 9 0 0
BITMAP
01A0
0720
0D30
1DE0
2849
340D
7000
9540
EAC0
ENDCHAR
STARTCHAR ldot
ENCODING 320
SWIDTH 489 0
DWIDTH 5 0
BBX 6 10 0 0
BITMAP
0900
0900
0D00
1C00
2800
25D0
3080
6000
A000
7400
ENDCHAR
STARTCHAR Lslash
ENCODING 321
SWIDTH 517 0
DWIDTH 6 0
BBX 6 9 0 0
BITMAP
01A0
0720
0E30
1DA0
2880
BD00
7000
9540
EAC0
ENDCHAR
STARTCHAR lslash
ENCODING 322
SWIDTH 279 0
DWIDTH 3 0
BBX 5 10 0 0
BITMAP
1800
0F80
0D00
0C00
1800
2400
3000
6000
A000
6400
ENDCHAR
STARTCHAR Nacute
ENCODING 323
SWIDTH 708 0
DWIDTH 8 0
BBX 9 12 0 0
BITMAP
000100
000700
000400
028340
0B8340
0A8340
268300
328900
61C800
A1D400
90F000
806000
ENDCHAR
STARTCHAR nacute
ENCODING 324
SWIDTH 561 0
DWIDTH 6 0
BBX 6 9 0 0
BITMAP
0060
00D0
0100
29A0
29A0
38D0
71C0
A280
81D0
ENDCHAR
STARTCHAR Ncommaaccent
ENCODING 325
SWIDTH 708 0
DWIDTH 8 0
BBX 9 12 0 -3
BITMAP
028340
0B8340
0A8340
268300
328900
61C800
A1D400
90F000
806000
010000
070000
050000
ENDCHAR
STARTCHAR ncommaaccent
ENCODING 326
SWIDTH 561 0
DWIDTH 6 0
BBX 6 9 0 -3
BITMAP
29A0
29A0
38D0
71C0
A280
81D0
1000
2400
2000
ENDCHAR
STARTCHAR Ncaron
ENCODING 327
SWIDTH 708 0
DWIDTH 8 0
BBX 9 12 0 0
BITMAP
001040
002A40
000400
028340
0B8340
0A8340
268300
328900
61C800
A1D400
90F000
806000
ENDCHAR
STARTCHAR ncaron
ENCODING 328
SWIDTH 561 0
DWIDTH 6 0
BBX 7 9 0 0
BITMAP
0214
02A0
0000
29A0
29A0
38D0
71C0
A280
81D0
ENDCHAR
STARTCHAR Eng
ENCODING 330
SWIDTH 698 0
DWIDTH 8 0
BBX 9 12 0 -3
BITMAP
028740
0B4340
1A4340
264300
328600
628900
91CC00
90E400
80A000
00D000
024000
090000
ENDCHAR
STARTCHAR eng
ENCODING 331
SWIDTH 561 0
DWIDTH 6 0
BBX 6 9 0 -3
BITMAP
29A0
2960
3890
70C0
A180
C340
0700
0D00
2400
ENDCHAR
STARTCHAR Omacron
ENCODING 332
SWIDTH 655 0
DWIDTH 7 0
BBX 8 11 0 0
BITMAP
00A9
0000
01A8
070D
0D09
280D
341C
7028
6070
30D0
1A40
ENDCHAR
STARTCHAR omacron
ENCODING 333
SWIDTH 514 0
DWIDTH 6 0
BBX 6 8 0 0
BITMAP
06A0
0000
0A80
28D0
70D0
A1C0
A340
2900
ENDCHAR
STARTCHAR Obreve
ENCODING 334
SWIDTH 655 0
DWIDTH 7 0
BBX 8 12 0 0
BITMAP
0011
0069
0000
01A8
070D
0D09
280D
341C
7028
6070
30D0
1A40
ENDCHAR
STARTCHAR obreve
ENCODING 335
SWIDTH 514 0
DWIDTH 6 0
BBX 6 9 0 0
BITMAP
0220
0290
0000
0A80
28D0
70D0
A1C0
A340
2900
ENDCHAR
STARTCHAR Ohungarumlaut
ENCODING 336
SWIDTH 655 0
DWIDTH 7 0
BBX 8 12 0 0
BITMAP
0011
0026
0044
01A8
070D
0D09
280D
341C
7028
6070
30D0
1A40
ENDCHAR
STARTCHAR ohungarumlaut
ENCODING 337
SWIDTH 514 0
DWIDTH 6 0
BBX 7 9 0 0
BITMAP
0264
0660
0440
0A80
28D0
70D0
A1C0
A340
2900
ENDCHAR
STARTCHAR OE
ENCODING 338
SWIDTH 900 0
DWIDTH 10 0
BBX 11 9 1 0
BITMAP
02A6A0
0E1D24
2828B0
343440
601A00
A02900
90B000
91E180
2A7E00
ENDCHAR
STARTCHAR oe
ENCODING 339
SWIDTH 777 0
DWIDTH 9 0
BBX 9 6 0 0
BITMAP
069B40
18B680
34A340
70E900
72D100
2A7900
ENDCHAR
STARTCHAR Racute
ENCODING 340
SWIDTH 623 0
DWIDTH 7 0
BBX 7 12 0 0
BITMAP
0010
0024
0050
1BA0
1918
0A18
0D34
1DE0
2F40
3680
A1D0
80B4
ENDCHAR
STARTCHAR racute
ENCODING 341
SWIDTH 407 0
DWIDTH 4 0
BBX 5 9 0 0
BITMAP
00C0
0280
0100
2580
2A80
3800
7400
A000
9000
ENDCHAR
STARTCHAR Rcommaaccent
ENCODING 342
SWIDTH 623 0
DWIDTH 7 0
BBX 7 12 0 -3
BITMAP
1BA0
1918
0A18
0D34
1DE0
2F40
3680
A1D0
80B4
1400
2800
2000
ENDCHAR
STARTCHAR rcommaaccent
ENCODING 343
SWIDTH 407 0
DWIDTH 4 0
BBX 6 9 -1 -3
BITMAP
0960
0AA0
0E00
1D00
2800
2400
1000
3000
5000
ENDCHAR
STARTCHAR Rcaron
ENCODING 344
SWIDTH 623 0
DWIDTH 7 0
BBX 7 12 0 0
BITMAP
0144
01E8
0040
1BA0
1918
0A18
0D34
1DE0
2F40
3680
A1D0
80B4
ENDCHAR
STARTCHAR rcaron
ENCODING 345
SWIDTH 407 0
DWIDTH 4 0
BBX 6 9 0 0
BITMAP
0920
0690
0100
2580
2A80
3800
7400
A000
9000
ENDCHAR
STARTCHAR Sacute
ENCODING 346
SWIDTH 474 0
DWIDTH 5 0
BBX 7 12 0 0
BITMAP
0010
0024
0050
0690
1C30
2870
28E0
2C40
0E00
4700
9300
7900
ENDCHAR
STARTCHAR sacute
ENCODING 347
SWIDTH 423 0
DWIDTH 5 0
BBX 5 9 0 0
BITMAP
00C0
0280
0100
1B40
3580
2800
1D00
8900
A800
ENDCHAR
STARTCHAR Scircumflex
ENCODING 348
SWIDTH 474 0
DWIDTH 5 0
BBX 7 12 0 0
BITMAP
0010
01B4
0114
0690
1C30
2870
28E0
2C40
0E00
4700
9300
7900
ENDCHAR
STARTCHAR scircumflex
ENCODING 349
SWIDTH 423 0
DWIDTH 5 0
BBX 6 9 0 0
BITMAP
0180
06C0
0450
1B40
3580
2800
1D00
8900
A800
ENDCHAR
STARTCHAR Scedilla
ENCODING 350
SWIDTH 474 0
DWIDTH 5 0
BBX 6 12 0 -3
BITMAP
0690
1C30
2870
28E0
2C40
0E00
0700
9300
7900
2400
2400
6000
ENDCHAR
STARTCHAR scedilla
ENCODING 351
SWIDTH 423 0
DWIDTH 5 0
BBX 5 8 0 -2
BITMAP
1B40
3580
2800
1D00
8900
6800
2000
A000
ENDCHAR
STARTCHAR Scaron
ENCODING 352
SWIDTH 474 0
DWIDTH 5 0
BBX 7 12 0 0
BITMAP
0144
01E8
0040
0690
1C30
2870
28E0
2C40
0E00
4700
9300
7900
ENDCHAR
STARTCHAR scaron
ENCODING 353
SWIDTH 423 0
DWIDTH 5 0
BBX 6 9 0 0
BITMAP
0620
0390
0100
1B40
3580
2800
1D00
8900
A800
ENDCHAR
STARTCHAR Tcommaaccent
ENCODING 354
SWIDTH 471 0
DWIDTH 5 0
BBX 7 12 0 -3
BITMAP
2AE8
2280
0340
0700
0600
0900
0C00
1800
2000
1000
3400
6000
ENDCHAR
STARTCHAR tcommaaccent
ENCODING 355
SWIDTH 358 0
DWIDTH 4 0
BBX 4 11 0 -3
BITMAP
04
0D
3E
24
30
60
61
78
50
60
90
ENDCHAR
STARTCHAR Tcaron
ENCODING 356
SWIDTH 471 0
DWIDTH 5 0
BBX 6 12 1 0
BITMAP
0110
03A0
0140
ABA0
8A00
0D00
1C00
1800
2400
3000
6000
8000
ENDCHAR
STARTCHAR tcaron
ENCODING 357
SWIDTH 497 0
DWIDTH 5 0
BBX 6 10 1 0
BITMAP
0090
0090
0480
2800
7900
6000
A000
D000
C400
B400
ENDCHAR
STARTCHAR Tbar
ENCODING 358
SWIDTH 471 0
DWIDTH 5 0
BBX 7 9 0 0
BITMAP
2AE8
6280
0340
0300
2F40
0900
0C00
1800
2000
ENDCHAR
STARTCHAR tbar
ENCODING 359
SWIDTH 358 0
DWIDTH 4 0
BBX 4 8 0 0
BITMAP
04
0D
3E
24
7A
60
61
78
ENDCHAR
STARTCHAR Utilde
ENCODING 360
SWIDTH 624 0
DWIDTH 7 0
BBX 8 11 0 0
BITMAP
01A9
0000
0A09
0A0D
0D1C
1C38
2474
70F0
A1A0
95A0
7474
ENDCHAR
STARTCHAR utilde
ENCODING 361
SWIDTH 553 0
DWIDTH 6 0
BBX 7 9 0 0
BITMAP
0284
04A0
0000
2870
28A0
35D0
72C0
A680
A5D0
ENDCHAR
STARTCHAR Umacron
ENCODING 362
SWIDTH 624 0
DWIDTH 7 0
BBX 8 11 0 0
BITMAP
01A8
0000
0A09
0A0D
0D1C
1C38
2474
70F0
A1A0
95A0
7474
ENDCHAR
STARTCHAR umacron
ENCODING 363
SWIDTH 553 0
DWIDTH 6 0
BBX 6 8 0 0
BITMAP
06A0
0000
2870
28A0
35D0
72C0
A680
A5D0
ENDCHAR
STARTCHAR Ubreve
ENCODING 364
SWIDTH 624 0
DWIDTH 7 0
BBX 8 12 0 0
BITMAP
0044
00A8
0000
0A09
0A0D
0D1C
1C38
2474
70F0
A1A0
95A0
7474
ENDCHAR
STARTCHAR ubreve
ENCODING 365
SWIDTH 553 0
DWIDTH 6 0
BBX 7 9 0 0
BITMAP
0214
0290
0000
2870
28A0
35D0
72C0
A680
A5D0
ENDCHAR
STARTCHAR Uring
ENCODING 366
SWIDTH 624 0
DWIDTH 7 0
BBX 8 12 0 0
BITMAP
0064
00CC
00D8
0A69
0A0D
0D1C
1C38
2474
70F0
A1A0
96A0
7474
ENDCHAR
STARTCHAR uring
ENCODING 367
SWIDTH 553 0
DWIDTH 6 0
BBX 6 9 0 0
BITMAP
01A0
0330
0290
2870
28A0
35D0
72C0
A680
A5D0
ENDCHAR
STARTCHAR Uhungarumlaut
ENCODING 368
SWIDTH 624 0
DWIDTH 7 0
BBX 8 12 0 0
BITMAP
0055
0099
0044
0A09
0A0D
0D1C
1C38
2474
70F0
A1A0
95A0
7474
ENDCHAR
STARTCHAR uhungarumlaut
ENCODING 369
SWIDTH 553 0
DWIDTH 6 0
BBX 7 9 0 0
BITMAP
0198
0260
0440
2870
28A0
35D0
72C0
A680
A5D0
ENDCHAR
STARTCHAR Uogonek
ENCODING 370
SWIDTH 684 0
DWIDTH 8 0
BBX 8 12 0 -3
BITMAP
0706
070A
0A0D
0D2C
1838
34B4
71B0
6270
7838
0020
0090
00A0
ENDCHAR
STARTCHAR uogonek
ENCODING 371
SWIDTH 553 0
DWIDTH 6 0
BBX 6 9 0 -3
BITMAP
2870
28A0
35D0
72C0
A680
A5D0
0180
0300
0240
ENDCHAR
STARTCHAR Wcircumflex
ENCODING 372
SWIDTH 941 0
DWIDTH 10 0
BBX 11 12 0 0
BITMAP
000100
000B40
001440
2A0028
07052C
0A1D1C
1D7818
28F424
367030
367090
787180
242900
ENDCHAR
STARTCHAR wcircumflex
ENCODING 373
SWIDTH 750 0
DWIDTH 8 0
BBX 8 9 0 0
BITMAP
0024
00A8
0104
2857
28D3
25C3
3385
6A88
61E0
ENDCHAR
STARTCHAR Ycircumflex
ENCODING 374
SWIDTH 580 0
DWIDTH 6 0
BBX 8 15 0 -3
BITMAP
0010
00B8
0144
0A09
0A0D
0D18
1834
3470
70E0
A290
95C0
A580
0300
0900
6400
ENDCHAR
STARTCHAR ycircumflex
ENCODING 375
SWIDTH 549 0
DWIDTH 6 0
BBX 6 12 0 -3
BITMAP
0090
02A0
0410
2830
28A0
34D0
72C0
A680
6640
0300
0900
2400
ENDCHAR
STARTCHAR Ydieresis
ENCODING 376
SWIDTH 580 0
DWIDTH 6 0
BBX 8 15 0 -3
BITMAP
0144
029D
0000
0A09
0A0D
0D18
1834
3470
70E0
A290
95C0
A580
0300
0900
6400
ENDCHAR
STARTCHAR Zacute
ENCODING 377
SWIDTH 501 0
DWIDTH 6 0
BBX 7 12 0 0
BITMAP
0010
0070
0040
1AB4
0074
01D0
0380
0E00
2800
6000
EA80
E080
ENDCHAR
STARTCHAR zacute
ENCODING 378
SWIDTH 430 0
DWIDTH 5 0
BBX 6 9 0 0
BITMAP
0090
0180
0100
2AC0
0680
0A00
2800
A400
AA00
ENDCHAR
STARTCHAR Zdotaccent
ENCODING 379
SWIDTH 501 0
DWIDTH 6 0
BBX 7 12 0 0
BITMAP
0140
02C0
0000
1AB4
0074
01E0
0380
0E00
2800
6000
EB80
E580
ENDCHAR
STARTCHAR zdotaccent
ENCODING 380
SWIDTH 430 0
DWIDTH 5 0
BBX 5 9 0 0
BITMAP
0740
0200
0000
2AC0
0680
0A00
2800
A400
AA00
ENDCHAR
STARTCHAR Zcaron
ENCODING 381
SWIDTH 501 0
DWIDTH 6 0
BBX 7 12 0 0
BITMAP
0104
02A4
0040
1AB4
0074
01D0
0380
0E00
2800
6000
EA80
E080
ENDCHAR
STARTCHAR zcaron
ENCODING 382
SWIDTH 430 0
DWIDTH 5 0
BBX 6 9 0 0
BITMAP
0960
0680
0100
2AC0
0680
0A00
2800
A400
AA00
ENDCHAR
STARTCHAR florin
ENCODING 402
SWIDTH 466 0
DWIDTH 5 0
BBX 9 13 -2 -3
BITMAP
000A00
002540
007340
00A100
02E400
02C000
028000
024000
034000
070000
0A0000
CD0000
B80000
ENDCHAR
STARTCHAR AEacute
ENCODING 508
SWIDTH 878 0
DWIDTH 10 0
BBX 12 12 -1 0
BITMAP
000010
0000A0
000040
001BB8
006785
00DA1C
028A14
0BAF80
0D0E00
181C10
341DA0
A00B80
ENDCHAR
STARTCHAR aeacute
ENCODING 509
SWIDTH 770 0
DWIDTH 8 0
BBX 9 9 0 0
BITMAP
002400
007000
004000
0ABA00
28E340
70DB00
A2E900
A6C100
78A900
ENDCHAR
STARTCHAR Scommaaccent
ENCODING 536
SWIDTH 474 0
DWIDTH 5 0
BBX 6 12 0 -3
BITMAP
0690
1C30
2870
28E0
2C40
0E00
4700
9300
7900
1000
2400
2000
ENDCHAR
STARTCHAR scommaaccent
ENCODING 537
SWIDTH 423 0
DWIDTH 5 0
BBX 5 9 0 -3
BITMAP
1B40
3580
2800
1D00
8900
A800
1000
7000
5000
ENDCHAR
STARTCHAR dotlessj
ENCODING 567
SWIDTH 277 0
DWIDTH 3 0
BBX 5 9 -2 -3
BITMAP
0280
0280
0340
0300
0600
0900
1C00
2400
9000
ENDCHAR
STARTCHAR circumflex
ENCODING 710
SWIDTH 354 0
DWIDTH 4 0
BBX 4 2 0 7
BITMAP
1D
A6
ENDCHAR
STARTCHAR caron
ENCODING 711
SWIDTH 381 0
DWIDTH 4 0
BBX 4 3 0 6
BITMAP
62
39
10
ENDCHAR
STARTCHAR breve
ENCODING 728
SWIDTH 344 0
DWIDTH 4 0
BBX 4 2 0 7
BITMAP
52
68
ENDCHAR
STARTCHAR dotaccent
ENCODING 729
SWIDTH 217 0
DWIDTH 2 0
BBX 2 2 1 7
BITMAP
D0
80
ENDCHAR
STARTCHAR ring
ENCODING 730
SWIDTH 402 0
DWIDTH 4 0
BBX 4 3 1 6
BITMAP
2D
99
68
ENDCHAR
STARTCHAR ogonek
ENCODING 731
SWIDTH 311 0
DWIDTH 3 0
BBX 3 4 0 -3
BITMAP
04
24
60
64
ENDCHAR
STARTCHAR tilde
ENCODING 732
SWIDTH 397 0
DWIDTH 4 0
BBX 5 2 0 7
BITMAP
2C40
5640
ENDCHAR
STARTCHAR hungarumlaut
ENCODING 733
SWIDTH 392 0
DWIDTH 4 0
BBX 5 3 0 6
BITMAP
1540
2640
5500
ENDCHAR
STARTCHAR pi
ENCODING 960
SWIDTH 640 0
DWIDTH 7 0
BBX 7 6 0 0
BITMAP
2FFC
0860
1890
24C0
71C0
D0E0
ENDCHAR
STARTCHAR uni1E02
ENCODING 7682
SWIDTH 551 0
DWIDTH 6 0
BBX 7 12 0 0
BITMAP
0040
00D0
0000
1AA0
2928
0D24
28A0
3F80
70D0
60D0
61C0
2A00
ENDCHAR
STARTCHAR uni1E03
ENCODING 7683
SWIDTH 525 0
DWIDTH 6 0
BBX 6 10 0 0
BITMAP
0900
0D70
0C50
1800
2AC0
38D0
70D0
61C0
9240
2900
ENDCHAR
STARTCHAR uni1E0A
ENCODING 7690
SWIDTH 630 0
DWIDTH 7 0
BBX 7 12 0 0
BITMAP
0050
00A0
0000
1EA0
1418
0A0C
1C0C
281C
3434
70A0
6280
6A00
ENDCHAR
STARTCHAR uni1E0B
ENCODING 7691
SWIDTH 557 0
DWIDTH 6 0
BBX 7 10 0 0
BITMAP
000C
0A18
0524
0030
0AB0
28A0
30D0
61C0
A380
79D0
ENDCHAR
STARTCHAR uni1E1E
ENCODING 7710
SWIDTH 518 0
DWIDTH 6 0
BBX 7 12 0 0
BITMAP
0050
00A0
0000
2BF8
6240
0700
0A00
1F90
1C00
2800
3400
A000
ENDCHAR
STARTCHAR uni1E1F
ENCODING 7711
SWIDTH 393 0
DWIDTH 4 0
BBX 6 13 0 -2
BITMAP
0280
02D0
0370
0AA0
0900
0C00
6E40
2800
3400
3000
6000
D000
8000
ENDCHAR
STARTCHAR uni1E40
ENCODING 7744
SWIDTH 931 0
DWIDTH 10 0
BBX 12 12 -1 0
BITMAP
000050
0000A0
000000
001D1D
006C6C
0198A8
0265A4
063230
097670
1878A0
3478A0
906074
ENDCHAR
STARTCHAR uni1E41
ENCODING 7745
SWIDTH 814 0
DWIDTH 9 0
BBX 9 9 0 0
BITMAP
003400
002000
000000
299740
2A6640
38A700
71CA00
A28900
824B00
ENDCHAR
STARTCHAR uni1E56
ENCODING 7766
SWIDTH 553 0
DWIDTH 6 0
BBX 8 12 -1 0
BITMAP
0004
001C
0000
06E8
0A0A
0286
034A
0728
0BE0
0D00
2800
6000
ENDCHAR
STARTCHAR uni1E57
ENCODING 7767
SWIDTH 550 0
DWIDTH 6 0
BBX 7 12 -1 -3
BITMAP
00A0
0050
0000
0DB4
0B28
0D28
1C34
28A0
2A80
3000
6000
9000
ENDCHAR
STARTCHAR uni1E60
ENCODING 7776
SWIDTH 474 0
DWIDTH 5 0
BBX 6 12 0 0
BITMAP
0040
00D0
0000
0690
1C30
2870
28E0
2C40
0E00
4700
9300
7900
ENDCHAR
STARTCHAR uni1E61
ENCODING 7777
SWIDTH 423 0
DWIDTH 5 0
BBX 5 9 0 0
BITMAP
0380
0140
0000
1B40
3580
2800
1D00
8900
A800
ENDCHAR
STARTCHAR uni1E6A
ENCODING 7786
SWIDTH 430 0
DWIDTH 5 0
BBX 7 12 0 0
BITMAP
0040
00D0
0000
7BA4
5340
0700
0600
0900
0D00
1800
2400
6000
ENDCHAR
STARTCHAR uni1E6B
ENCODING 7787
SWIDTH 358 0
DWIDTH 4 0
BBX 4 9 1 0
BITMAP
0D
08
24
B9
A0
90
C0
C4
B4
ENDCHAR
STARTCHAR Wgrave
ENCODING 7808
SWIDTH 941 0
DWIDTH 10 0
BBX 11 12 0 0
BITMAP
000400
000D00
000100
2A0028
07051C
0A1D1C
1D7818
28F424
367030
367090
787180
242D00
ENDCHAR
STARTCHAR wgrave
ENCODING 7809
SWIDTH 750 0
DWIDTH 8 0
BBX 8 9 0 0
BITMAP
0090
0090
0010
2857
28D3
25C3
3385
6A88
61E0
ENDCHAR
STARTCHAR Wacute
ENCODING 7810
SWIDTH 941 0
DWIDTH 10 0
BBX 11 12 0 0
BITMAP
000040
000280
000100
2A0028
07052C
0A1D1C
1D7818
28F424
367030
367090
787180
242900
ENDCHAR
STARTCHAR wacute
ENCODING 7811
SWIDTH 750 0
DWIDTH 8 0
BBX 8 9 0 0
BITMAP
0024
0060
0040
2857
28D3
25C3
3385
6A88
61E0
ENDCHAR
STARTCHAR Wdieresis
ENCODING 7812
SWIDTH 941 0
DWIDTH 10 0
BBX 11 12 0 0
BITMAP
001440
0029C0
000000
2A0028
07051C
0A1D1C
1D7818
28F424
367030
367090
787180
242D00
ENDCHAR
STARTCHAR wdieresis
ENCODING 7813
SWIDTH 750 0
DWIDTH 8 0
BBX 8 9 0 0
BITMAP
029D
0148
0000
2857
28D3
25C3
3385
6A88
61E0
ENDCHAR
STARTCHAR Ygrave
ENCODING 7922
SWIDTH 580 0
DWIDTH 6 0
BBX 8 15 0 -3
BITMAP
0080
00D0
0010
0A09
0A0D
0D18
1834
3470
70E0
A290
95C0
A580
0300
0900
6400
ENDCHAR
STARTCHAR ygrave
ENCODING 7923
SWIDTH 549 0
DWIDTH 6 0
BBX 6 12 0 -3
BITMAP
0240
0240
0040
2830
28A0
34D0
72C0
A680
6640
0300
0900
2400
ENDCHAR
STARTCHAR endash
ENCODING 8211
SWIDTH 751 0
DWIDTH 8 0
BBX 7 1 1 3
BITMAP
AAA4
ENDCHAR
STARTCHAR emdash
ENCODING 8212
SWIDTH 1066 0
DWIDTH 12 0
BBX 10 1 1 3
BITMAP
AAAAA0
ENDCHAR
STARTCHAR quoteleft
ENCODING 8216
SWIDTH 268 0
DWIDTH 3 0
BBX 2 3 1 7
BITMAP
20
60
60
ENDCHAR
STARTCHAR quoteright
ENCODING 8217
SWIDTH 268 0
DWIDTH 3 0
BBX 2 3 2 7
BITMAP
90
90
80
ENDCHAR
STARTCHAR quotesinglbase
ENCODING 8218
SWIDTH 268 0
DWIDTH 3 0
BBX 2 3 0 -1
BITMAP
60
60
90
ENDCHAR
STARTCHAR quotedblleft
ENCODING 8220
SWIDTH 485 0
DWIDTH 5 0
BBX 5 3 1 7
BITMAP
2540
6300
6700
ENDCHAR
STARTCHAR quotedblright
ENCODING 8221
SWIDTH 480 0
DWIDTH 5 0
BBX 4 3 2 7
BITMAP
A6
96
88
ENDCHAR
STARTCHAR quotedblbase
ENCODING 8222
SWIDTH 463 0
DWIDTH 5 0
BBX 4 3 0 -1
BITMAP
67
63
95
ENDCHAR
STARTCHAR dagger
ENCODING 8224
SWIDTH 488 0
DWIDTH 5 0
BBX 5 9 1 0
BITMAP
0900
0D00
BF40
2800
2400
3000
6000
9000
8000
ENDCHAR
STARTCHAR daggerdbl
ENCODING 8225
SWIDTH 488 0
DWIDTH 5 0
BBX 5 9 1 0
BITMAP
0900
0D00
BF40
1800
2800
BD00
6000
9000
8000
ENDCHAR
STARTCHAR bullet
ENCODING 8226
SWIDTH 437 0
DWIDTH 5 0
BBX 3 3 1 2
BITMAP
78
B8
60
ENDCHAR
STARTCHAR ellipsis
ENCODING 8230
SWIDTH 810 0
DWIDTH 9 0
BBX 8 2 0 0
BITMAP
B2CA
5145
ENDCHAR
STARTCHAR perthousand
ENCODING 8240
SWIDTH 1184 0
DWIDTH 13 0
BBX 12 9 1 0
BITMAP
681400
D96000
CC9000
A58000
030000
096868
18CDCD
259D8C
50A4A4
ENDCHAR
STARTCHAR guilsinglleft
ENCODING 8249
SWIDTH 413 0
DWIDTH 5 0
BBX 3 5 1 1
BITMAP
18
A0
D0
70
14
ENDCHAR
STARTCHAR guilsinglright
ENCODING 8250
SWIDTH 416 0
DWIDTH 5 0
BBX 3 4 1 2
BITMAP
90
34
28
90
ENDCHAR
STARTCHAR fraction
ENCODING 8260
SWIDTH 580 0
DWIDTH 6 0
BBX 6 10 0 0
BITMAP
0010
0060
0090
0180
0340
0600
0C00
2800
3000
9000
ENDCHAR
STARTCHAR Euro
ENCODING 8364
SWIDTH 622 0
DWIDTH 7 0
BBX 7 9 1 0
BITMAP
02A0
0A24
1C70
2860
BA00
F900
A000
7040
2A40
ENDCHAR
STARTCHAR trademark
ENCODING 8482
SWIDTH 1084 0
DWIDTH 12 0
BBX 9 5 2 4
BITMAP
551040
B9B280
30BA40
627A40
663240
ENDCHAR
STARTCHAR Omega
ENCODING 8486
SWIDTH 839 0
DWIDTH 9 0
BBX 9 9 0 0
BITMAP
005000
0A6800
280700
340340
700340
340340
280700
090900
7B2F80
ENDCHAR
STARTCHAR partialdiff
ENCODING 8706
SWIDTH 580 0
DWIDTH 6 0
BBX 7 9 0 0
BITMAP
0290
0620
0124
1EB4
3870
70A0
A0D0
A280
6A00
ENDCHAR
STARTCHAR Delta
ENCODING 8710
SWIDTH 663 0
DWIDTH 7 0
BBX 7 7 0 0
BITMAP
0140
0380
09D0
1860
2030
6028
AAA8
ENDCHAR
STARTCHAR product
ENCODING 8719
SWIDTH 667 0
DWIDTH 7 0
BBX 6 10 1 -1
BITMAP
5540
D5A0
C0A0
C0A0
C0A0
C0A0
C0A0
C0A0
C0A0
8090
ENDCHAR
STARTCHAR summation
ENCODING 8721
SWIDTH 677 0
DWIDTH 7 0
BBX 7 10 0 -1
BITMAP
1554
3954
1D00
0A00
0380
0280
0600
1C00
3400
BFF4
ENDCHAR
STARTCHAR minus
ENCODING 8722
SWIDTH 617 0
DWIDTH 7 0
BBX 5 2 1 3
BITMAP
5540
5540
ENDCHAR
STARTCHAR radical
ENCODING 8730
SWIDTH 709 0
DWIDTH 8 0
BBX 9 11 0 0
BITMAP
000040
000180
000340
000600
000D00
141800
7C3000
0C5000
0D8000
0B4000
060000
ENDCHAR
STARTCHAR infinity
ENCODING 8734
SWIDTH 681 0
DWIDTH 8 0
BBX 7 4 0 2
BITMAP
1864
66D8
679C
1864
ENDCHAR
STARTCHAR integral
ENCODING 8747
SWIDTH 583 0
DWIDTH 6 0
BBX 9 13 -1 -2
BITMAP
000100
000E80
002980
003140
00A000
00D000
00C000
018000
024000
030000
560000
DD0000
A80000
ENDCHAR
STARTCHAR approxequal
ENCODING 8776
SWIDTH 671 0
DWIDTH 7 0
BBX 7 5 0 1
BITMAP
1F48
21F4
1904
27A4
4190
ENDCHAR
STARTCHAR notequal
ENCODING 8800
SWIDTH 617 0
DWIDTH 7 0
BBX 5 8 1 0
BITMAP
0040
0240
6B80
5D40
6940
7540
9000
4000
ENDCHAR
STARTCHAR lessequal
ENCODING 8804
SWIDTH 704 0
DWIDTH 8 0
BBX 6 8 0 0
BITMAP
0010
00A0
0A40
7800
1A00
0190
0010
2AA0
ENDCHAR
STARTCHAR greaterequal
ENCODING 8805
SWIDTH 617 0
DWIDTH 7 0
BBX 6 8 0 0
BITMAP
1000
2800
0680
00B0
0680
2800
1000
6AA0
ENDCHAR
STARTCHAR lozenge
ENCODING 9674
SWIDTH 580 0
DWIDTH 6 0
BBX 6 8 0 0
BITMAP
0B00
1A80
20C0
6060
6060
2480
0E40
0600
ENDCHAR
STARTCHAR commaaccent
ENCODING 63171
SWIDTH 250 0
DWIDTH 3 0
BBX 2 3 0 -3
BITMAP
10
30
50
ENDCHAR
STARTCHAR ff
ENCODING 64256
SWIDTH 773 0
DWIDTH 9 0
BBX 10 12 0 -2
BITMAP
0191A0
037370
0AA670
094A10
0C0900
6EAE40
281800
342400
703400
607000
D0A000
808000
ENDCHAR
STARTCHAR fi
ENCODING 64257
SWIDTH 623 0
DWIDTH 7 0
BBX 7 12 0 -2
BITMAP
00A4
024C
061C
0D04
1EB4
6834
2430
30A0
7090
A0A0
D000
4000
ENDCHAR
STARTCHAR fl
ENCODING 64258
SWIDTH 637 0
DWIDTH 7 0
BBX 8 12 0 -2
BITMAP
00A8
038D
070C
091C
0C18
2E64
2830
3460
7090
A064
D000
4000
ENDCHAR
STARTCHAR .notdef
ENCODING -1
SWIDTH 896 0
DWIDTH 10 0
BBX 11 10 0 0
BITMAP
01AAA4
03FFF8
07EEB4
0B65F0
0F47E0
1F8FD0
2F4BD0
3D92C0
3FFF80
7FFF40
ENDCHAR
ENDFONT
